<svg width="31" height="31" viewBox="0 0 31 31" fill="none" xmlns="http://www.w3.org/2000/svg">
<path d="M15.6926 30.0374C7.42159 30.0374 0.692627 23.3084 0.692627 15.0374C0.692627 6.76632 7.42159 0.0373535 15.6926 0.0373535C23.9637 0.0373535 30.6926 6.76632 30.6926 15.0374C30.6926 23.3084 23.9637 30.0374 15.6926 30.0374Z" fill="white"/>
<path d="M15.6927 27.7308C8.69357 27.7308 2.99937 22.0366 2.99937 15.0374C2.99937 8.0383 8.69351 2.3441 15.6927 2.3441C22.6919 2.3441 28.3861 8.03824 28.3861 15.0374C28.3861 22.0366 22.6919 27.7308 15.6927 27.7308ZM15.6927 5.58064C10.4782 5.58064 6.23591 9.82295 6.23591 15.0374C6.23591 20.2519 10.4782 24.4942 15.6927 24.4942C20.9072 24.4942 25.1495 20.2519 25.1495 15.0374C25.1495 9.82295 20.9071 5.58064 15.6927 5.58064Z" fill="#90ABD3"/>
<path d="M22.889 24.1857L21.9167 23.0775L22.2569 22.7791L23.2292 23.8873L22.889 24.1857Z" fill="#2257A8"/>
<path d="M20.5353 24.0915L20.8382 23.882L21.5409 24.1878C21.6311 24.227 21.7318 24.2808 21.843 24.3491C21.7694 24.2845 21.7137 24.2249 21.6761 24.1705L21.2699 23.5833L21.5719 23.3744L22.4107 24.5869L22.0589 24.8302L21.4692 24.5815C21.3519 24.5322 21.2556 24.4841 21.1803 24.4372C21.271 24.5278 21.3538 24.6272 21.4287 24.7356L21.677 25.0944L21.3741 25.304L20.5353 24.0915Z" fill="#2257A8"/>
<path d="M19.0532 24.7407L19.3873 24.5858L20.0278 25.0066C20.11 25.0606 20.2001 25.1307 20.298 25.2171C20.2365 25.1408 20.1918 25.0727 20.1639 25.0126L19.8635 24.3649L20.1967 24.2104L20.817 25.5479L20.4289 25.7278L19.8901 25.3824C19.783 25.3139 19.6962 25.2501 19.63 25.1911C19.7039 25.2958 19.7686 25.4078 19.824 25.5274L20.0076 25.9232L19.6735 26.0782L19.0532 24.7407Z" fill="#2257A8"/>
<path d="M18.0988 25.0081C18.2989 24.9536 18.4802 24.9754 18.6428 25.0737C18.8047 25.1721 18.9159 25.3325 18.9765 25.5548C19.0344 25.7674 19.0221 25.9592 18.9395 26.1302C18.8565 26.3021 18.708 26.4172 18.494 26.4754C18.296 26.5294 18.1171 26.508 17.9571 26.4112C17.7965 26.3147 17.6865 26.1573 17.627 25.9392C17.5655 25.7134 17.5791 25.5153 17.6678 25.3449C17.7564 25.1745 17.9001 25.0622 18.0988 25.0081ZM18.1889 25.3306C18.1152 25.3506 18.0711 25.397 18.0566 25.4696C18.0415 25.5431 18.0573 25.6653 18.1038 25.8362C18.1712 26.0835 18.2712 26.1891 18.4039 26.153C18.547 26.114 18.5802 25.9535 18.5034 25.6714C18.4313 25.4067 18.3264 25.2931 18.1889 25.3306Z" fill="#2257A8"/>
<path d="M16.1307 26.8706L16.4186 25.3539L16.8769 25.3016L17.5182 26.7123L17.0439 26.7664L16.7221 25.9943C16.701 25.9489 16.6818 25.904 16.6644 25.8596L16.5009 26.8283L16.1307 26.8706Z" fill="#2257A8"/>
<path d="M14.9603 25.3811L15.0336 25.6743L15.4287 25.6875L15.527 25.4002L15.894 25.4125L15.3889 26.8706L14.9107 26.8545L14.4993 25.3656L14.9603 25.3811ZM15.3412 26.0066L15.1016 25.9986L15.207 26.4301L15.3412 26.0066Z" fill="#2257A8"/>
<path d="M12.275 25.5107L11.8812 25.3818C11.9458 25.2119 12.0457 25.0948 12.1809 25.0305C12.3154 24.966 12.4631 24.9549 12.624 24.997C12.8177 25.0478 12.9572 25.1529 13.0428 25.3123C13.1283 25.4716 13.1414 25.6642 13.0823 25.8898C13.0237 26.1134 12.92 26.279 12.7712 26.3867C12.6224 26.4943 12.447 26.5216 12.245 26.4687C12.0562 26.4192 11.925 26.329 11.8514 26.198C11.7771 26.0669 11.756 25.9132 11.788 25.737L12.2023 25.8222C12.1773 25.9176 12.1777 25.9914 12.2034 26.0436C12.2285 26.0955 12.2658 26.128 12.3153 26.141C12.4532 26.1771 12.5584 26.0566 12.6311 25.7794C12.6718 25.6241 12.6817 25.5139 12.6608 25.4488C12.6392 25.3836 12.596 25.3425 12.5312 25.3256C12.4156 25.2952 12.3302 25.357 12.275 25.5107Z" fill="#2257A8"/>
<path d="M11.2494 24.4817C11.4383 24.5674 11.564 24.6999 11.6265 24.8793C11.6884 25.0583 11.6718 25.2528 11.5766 25.4627C11.4856 25.6633 11.3538 25.8032 11.1812 25.8822C11.0076 25.9616 10.8198 25.9556 10.6179 25.864C10.431 25.7792 10.3068 25.6486 10.2453 25.4721C10.1832 25.2953 10.1988 25.1039 10.2922 24.898C10.3888 24.6849 10.5256 24.5409 10.7026 24.4662C10.8796 24.3915 11.0618 24.3967 11.2494 24.4817ZM11.1131 24.7876C11.0436 24.7561 10.9801 24.7636 10.9225 24.8103C10.8641 24.8573 10.7982 24.9614 10.7251 25.1228C10.6192 25.3562 10.6289 25.5014 10.7542 25.5581C10.8893 25.6194 11.0172 25.5169 11.1379 25.2507C11.2512 25.0008 11.2429 24.8465 11.1131 24.7876Z" fill="#2257A8"/>
<path d="M9.36468 25.1216L10.1262 23.8592L10.5137 24.093L9.75217 25.3554L9.36468 25.1216Z" fill="#2257A8"/>
<path d="M8.86858 22.8105L9.15979 23.036L9.08044 23.7982C9.07029 23.896 9.04941 24.0082 9.01779 24.1349C9.05719 24.0452 9.09717 23.9742 9.13773 23.9218L9.57482 23.3573L9.86518 23.5822L8.96256 24.7479L8.62438 24.486L8.68344 23.8487C8.69504 23.722 8.7118 23.6157 8.73372 23.5298C8.67479 23.6435 8.60499 23.7525 8.52432 23.8566L8.25717 24.2017L7.96596 23.9762L8.86858 22.8105Z" fill="#2257A8"/>
<path d="M8.2539 5.8551L9.22623 6.96331L8.88605 7.26177L7.91373 6.15356L8.2539 5.8551Z" fill="#2257A8"/>
<path d="M10.6076 5.94931L10.3047 6.15885L9.60199 5.85306C9.51183 5.81386 9.41114 5.76007 9.29991 5.69168C9.37353 5.75632 9.42918 5.81589 9.46687 5.87036L9.87304 6.45749L9.57104 6.66641L8.73227 5.45397L9.08401 5.21064L9.67371 5.45935C9.791 5.50866 9.8873 5.55674 9.96261 5.60358C9.87197 5.51306 9.78917 5.41362 9.7142 5.30526L9.46595 4.94641L9.76884 4.73687L10.6076 5.94931Z" fill="#2257A8"/>
<path d="M12.0897 5.30011L11.7556 5.45507L11.1151 5.03419C11.0329 4.98023 10.9429 4.91009 10.8449 4.82377C10.9064 4.9 10.9512 4.96816 10.979 5.02825L11.2794 5.67591L10.9463 5.83042L10.326 4.49296L10.714 4.31301L11.2528 4.65842C11.36 4.72696 11.4467 4.79072 11.5129 4.84969C11.439 4.74507 11.3743 4.633 11.3189 4.51346L11.1353 4.11761L11.4694 3.96265L12.0897 5.30011Z" fill="#2257A8"/>
<path d="M13.0441 5.03275C12.8441 5.08726 12.6627 5.06538 12.5001 4.96713C12.3382 4.86869 12.227 4.70831 12.1665 4.486C12.1085 4.27341 12.1209 4.08162 12.2034 3.91063C12.2864 3.73875 12.4349 3.62367 12.6489 3.56539C12.8469 3.51145 13.0259 3.53285 13.1858 3.62959C13.3464 3.72613 13.4565 3.88348 13.5159 4.10162C13.5774 4.32741 13.5638 4.52552 13.4752 4.69594C13.3865 4.86636 13.2428 4.97863 13.0441 5.03275ZM12.9541 4.71027C13.0277 4.69021 13.0718 4.64387 13.0863 4.57125C13.1014 4.49775 13.0856 4.37554 13.0391 4.20464C12.9717 3.95731 12.8717 3.85172 12.739 3.88787C12.5959 3.92685 12.5627 4.08738 12.6396 4.36944C12.7117 4.63413 12.8165 4.74774 12.9541 4.71027Z" fill="#2257A8"/>
<path d="M15.0122 3.17027L14.7243 4.68695L14.2661 4.73921L13.6247 3.32849L14.099 3.2744L14.4208 4.04649C14.4419 4.09191 14.4612 4.13682 14.4785 4.18122L14.642 3.21248L15.0122 3.17027Z" fill="#2257A8"/>
<path d="M16.1826 4.65974L16.1093 4.36657L15.7142 4.35328L15.6159 4.64068L15.2489 4.62833L15.754 3.17019L16.2322 3.18628L16.6436 4.67524L16.1826 4.65974ZM15.8017 4.03418L16.0413 4.04224L15.9359 3.61074L15.8017 4.03418Z" fill="#2257A8"/>
<path d="M18.8679 4.5301L19.2618 4.65902C19.1971 4.82891 19.0972 4.94601 18.962 5.01031C18.8275 5.0748 18.6798 5.08595 18.5189 5.04378C18.3253 4.99302 18.1857 4.88795 18.1002 4.72857C18.0147 4.56919 18.0015 4.37667 18.0606 4.151C18.1192 3.92742 18.223 3.76181 18.3718 3.65417C18.5206 3.54654 18.696 3.5192 18.8979 3.57214C19.0867 3.62162 19.2179 3.71184 19.2915 3.84279C19.3658 3.97392 19.3869 4.12759 19.3549 4.3038L18.9406 4.21865C18.9656 4.12323 18.9653 4.04944 18.9395 3.99727C18.9144 3.94529 18.8771 3.91282 18.8277 3.89986C18.6898 3.86371 18.5845 3.98424 18.5118 4.26145C18.4711 4.41677 18.4612 4.52695 18.4821 4.59198C18.5037 4.6572 18.5469 4.69829 18.6117 4.71527C18.7273 4.74558 18.8127 4.68386 18.8679 4.5301Z" fill="#2257A8"/>
<path d="M19.8935 5.55908C19.7047 5.47344 19.579 5.34093 19.5164 5.16156C19.4545 4.98248 19.4711 4.78802 19.5663 4.57817C19.6573 4.3775 19.7891 4.23764 19.9617 4.15859C20.1353 4.07917 20.3231 4.08526 20.5251 4.17685C20.712 4.2616 20.8361 4.39223 20.8976 4.56875C20.9598 4.74556 20.9441 4.93692 20.8508 5.14283C20.7541 5.35596 20.6173 5.49988 20.4403 5.57459C20.2633 5.64929 20.0811 5.64413 19.8935 5.55908ZM20.0298 5.25325C20.0993 5.28477 20.1629 5.27721 20.2204 5.23055C20.2789 5.18354 20.3447 5.07938 20.4178 4.91806C20.5237 4.6846 20.514 4.53947 20.3887 4.48268C20.2537 4.42142 20.1257 4.52391 20.005 4.79016C19.8917 5.04001 19.9 5.19437 20.0298 5.25325Z" fill="#2257A8"/>
<path d="M21.7782 4.9192L21.0167 6.18158L20.6292 5.94781L21.3907 4.68544L21.7782 4.9192Z" fill="#2257A8"/>
<path d="M22.2744 7.09212L21.9831 6.86663L22.0625 6.10437C22.0726 6.00658 22.0935 5.89435 22.1251 5.76766C22.0857 5.85736 22.0458 5.9284 22.0052 5.98077L21.5681 6.54526L21.2778 6.32043L22.1804 5.15474L22.5186 5.4166L22.4595 6.05387C22.4479 6.18058 22.4311 6.2869 22.4092 6.37284C22.4681 6.2591 22.5379 6.15014 22.6186 6.04595L22.8858 5.70094L23.177 5.92643L22.2744 7.09212Z" fill="#2257A8"/>
<path d="M12.876 9.85296V20.2216H9.67887V9.85296H12.876Z" fill="#2257A8"/>
<path d="M22.536 17.7453V20.2216H14.6996V9.85296H22.536V12.2457H17.8357V13.7498H21.6356V16.0514H17.8357V17.7453H22.536Z" fill="#2257A8"/>
<path d="M4.55764 15.5979C4.86701 15.5979 5.1178 15.3472 5.1178 15.0378C5.1178 14.7284 4.86701 14.4776 4.55764 14.4776C4.24828 14.4776 3.99749 14.7284 3.99749 15.0378C3.99749 15.3472 4.24828 15.5979 4.55764 15.5979Z" fill="#2257A8"/>
<path d="M26.7155 15.598C27.0248 15.598 27.2756 15.3472 27.2756 15.0379C27.2756 14.7285 27.0248 14.4777 26.7155 14.4777C26.4061 14.4777 26.1553 14.7285 26.1553 15.0379C26.1553 15.3472 26.4061 15.598 26.7155 15.598Z" fill="#2257A8"/>
</svg>
