<svg width="101" height="28" viewBox="0 0 101 28" fill="none" xmlns="http://www.w3.org/2000/svg">
<path d="M57.4009 8.20688V10.4741H50.4033V0.962891H57.4009V3.1589H53.2052V4.54211H56.5924V6.65251H53.2052V8.20688H57.4009ZM94.5079 3.38705L91.792 11.0636C91.5829 11.6458 91.2832 12.0974 90.8952 12.423C90.5049 12.7486 89.9032 12.9126 89.0924 12.9126C88.8972 12.9126 88.4442 12.8936 87.7333 12.8556V10.8734C88.0887 10.9305 88.414 10.959 88.716 10.959C89.4966 10.959 89.8869 10.7879 89.8869 10.4456C89.8869 10.3292 89.8497 10.17 89.7708 9.96555L87.2872 3.38705H90.1913L91.3274 7.14209L92.5238 3.38705H94.5079ZM87.3244 1.78994L87.2547 3.67226L87.1246 3.66508C86.8806 3.65086 86.7041 3.64374 86.5995 3.64374C86.1767 3.64374 85.9235 3.73643 85.8375 3.92178C86.3556 4.35671 86.6134 4.88194 86.6134 5.4951C86.6134 6.21524 86.3324 6.75714 85.7701 7.12075C85.2102 7.48436 84.4459 7.66501 83.4817 7.66501C83.4608 7.66501 83.3424 7.66024 83.1286 7.65072C82.9288 7.64122 82.8242 7.63646 82.815 7.63646C82.3736 7.63646 82.1528 7.75531 82.1528 7.98823C82.1528 8.19497 82.348 8.3043 82.7383 8.31856L84.9663 8.41601C85.7794 8.45402 86.3765 8.68455 86.7552 9.11236C87.1339 9.54015 87.3244 10.0368 87.3244 10.6096C87.3244 11.287 87.0433 11.8407 86.4787 12.2685C85.9142 12.6987 84.8153 12.9126 83.182 12.9126C80.6659 12.9126 79.4067 12.3208 79.4067 11.1373C79.4067 10.4908 79.739 10.0392 80.4057 9.78497C79.9713 9.47359 79.7553 9.10519 79.7553 8.6774C79.7553 7.98108 80.1967 7.45581 81.0795 7.1017C80.3453 6.77375 79.9783 6.22711 79.9783 5.46182C79.9783 4.76315 80.278 4.21889 80.875 3.82912C81.4745 3.43931 82.2945 3.24441 83.3377 3.24441C83.814 3.24441 84.2461 3.29436 84.6364 3.39181C84.7967 2.28669 85.3705 1.73288 86.3625 1.73288C86.5903 1.73288 86.9108 1.75193 87.3244 1.78994ZM83.347 6.35308C83.8697 6.35308 84.1323 6.07025 84.1323 5.50701C84.1323 4.92947 83.865 4.64192 83.3284 4.64192C82.7964 4.64192 82.5292 4.93424 82.5292 5.52126C82.5292 6.07498 82.801 6.35308 83.347 6.35308ZM82.6524 10.391C82.5524 10.3886 82.4525 10.3862 82.3526 10.3862C81.8856 10.3862 81.651 10.5312 81.651 10.8235C81.651 11.0921 81.8299 11.2656 82.1854 11.3416C82.5431 11.42 83.0171 11.4581 83.6118 11.4581C84.1764 11.4581 84.5388 11.4106 84.6991 11.3131C84.8594 11.2157 84.9407 11.0826 84.9407 10.9139C84.9407 10.7926 84.9036 10.6928 84.8315 10.612C84.7595 10.5312 84.5876 10.486 84.3134 10.4718L82.6524 10.391ZM77.3948 10.4741H74.7882V3.38705H77.0603V4.83444C77.3182 3.77444 77.9152 3.24441 78.8561 3.24441C78.9514 3.24441 79.0815 3.25397 79.2487 3.27296V5.73754C79.0582 5.69235 78.8887 5.66863 78.74 5.66863C77.8432 5.66863 77.3948 6.18434 77.3948 7.21344V10.4741ZM71.1987 7.92167L73.7218 8.09514C73.5731 8.79388 73.1897 9.38802 72.5741 9.88004C71.9608 10.372 71.129 10.6168 70.0812 10.6168C68.915 10.6168 67.9856 10.2722 67.291 9.58292C66.5963 8.89371 66.2502 8.03811 66.2502 7.01857C66.2502 5.95857 66.5917 5.06493 67.2771 4.33768C67.9624 3.60808 68.8778 3.24441 70.0208 3.24441C71.1267 3.24441 72.0211 3.58668 72.7041 4.27351C73.3872 4.9604 73.7287 5.8944 73.7287 7.07557C73.7287 7.17299 73.7264 7.30851 73.7218 7.4796H69.0938C69.1031 7.92878 69.1798 8.2615 69.3261 8.48015C69.4702 8.69646 69.7467 8.80575 70.1555 8.80575C70.748 8.80575 71.0941 8.51105 71.1987 7.92167ZM71.0035 6.08216C70.9989 5.60919 70.906 5.29073 70.7247 5.12911C70.5435 4.96513 70.3182 4.88429 70.0487 4.88429C69.4121 4.88429 69.0938 5.28362 69.0938 6.08216H71.0035ZM65.1815 10.4741H62.4633V6.01319C62.4633 5.64485 62.4098 5.41194 62.2983 5.30975C62.1868 5.20754 62.0497 5.15527 61.8824 5.15527C61.3899 5.15527 61.1437 5.50939 61.1437 6.21524V10.4741H58.4255V3.38705H60.9485V4.38998C61.3203 3.62707 61.9847 3.24441 62.9395 3.24441C63.4437 3.24441 63.8665 3.34428 64.215 3.54153C64.5612 3.73878 64.8098 3.9931 64.9584 4.30679C65.1072 4.62051 65.1815 5.16477 65.1815 5.93955V10.4741Z" fill="#2257A8"/>
<path d="M9.33519 0.962891V10.4741H6.47758V0.962891H9.33519ZM49.0998 10.4741H46.5211C46.456 10.1724 46.4235 9.84196 46.4235 9.48309C45.9332 10.2389 45.1922 10.6168 44.1978 10.6168C43.38 10.6168 42.769 10.4029 42.3624 9.97746C41.9559 9.54964 41.7538 9.06245 41.7538 8.51105C41.7538 7.76481 42.086 7.16114 42.7504 6.70008C43.4148 6.23899 44.5928 5.96096 46.2841 5.86827V5.70664C46.2841 5.39292 46.2144 5.18379 46.0773 5.08157C45.9403 4.97936 45.7381 4.92712 45.4733 4.92712C44.8507 4.92712 44.5022 5.18855 44.4301 5.71137L41.9489 5.469C42.302 3.98592 43.5055 3.24441 45.5592 3.24441C46.1168 3.24441 46.628 3.30147 47.0949 3.41556C47.5619 3.52962 47.9313 3.70553 48.2031 3.94791C48.4749 4.19035 48.6585 4.44466 48.7514 4.7132C48.8443 4.98412 48.8908 5.50228 48.8908 6.2675V9.09569C48.8908 9.63284 48.9605 10.0939 49.0998 10.4741ZM46.2841 7.16587C45.1317 7.28946 44.5556 7.66736 44.5556 8.29716C44.5556 8.72259 44.7833 8.9341 45.2409 8.9341C45.529 8.9341 45.7753 8.84614 45.9797 8.67029C46.1818 8.49441 46.2841 8.10702 46.2841 7.50576V7.16587ZM41.6725 3.38705L39.1285 10.4741H37.1003L34.5262 3.38705H37.3164L38.2944 6.36731C38.3758 6.61213 38.4478 6.85456 38.5105 7.0922C38.5338 7.00901 38.5663 6.90445 38.6127 6.7761C38.622 6.75714 38.6522 6.66919 38.701 6.51232L39.721 3.38705H41.6725ZM30.6138 10.6168C29.4661 10.6168 28.5554 10.2508 27.8793 9.52113C27.2033 8.78915 26.8641 7.93117 26.8641 6.94722C26.8641 5.88967 27.2172 5.00791 27.9235 4.30203C28.6274 3.59618 29.5451 3.24441 30.6765 3.24441C31.8149 3.24441 32.7303 3.59141 33.4226 4.2878C34.115 4.98412 34.4611 5.85639 34.4611 6.90683C34.4611 7.96444 34.1103 8.84614 33.4087 9.55437C32.707 10.2626 31.7777 10.6168 30.6138 10.6168ZM30.6556 8.9341C31.0738 8.9341 31.3317 8.71068 31.4223 8.2615C31.5152 7.81469 31.5617 7.34652 31.5617 6.85932C31.5617 6.19383 31.4966 5.71614 31.3665 5.42381C31.2341 5.13149 31.0018 4.98412 30.6626 4.98412C30.3513 4.98412 30.1236 5.13622 29.9795 5.4381C29.8355 5.73992 29.7635 6.23661 29.7635 6.92823C29.7635 7.74102 29.8379 8.27817 29.9865 8.53959C30.1352 8.80337 30.3582 8.9341 30.6556 8.9341ZM25.7954 10.4741H23.0772V6.01319C23.0772 5.64485 23.0237 5.41194 22.9122 5.30975C22.8007 5.20754 22.6636 5.15527 22.4963 5.15527C22.0038 5.15527 21.7576 5.50939 21.7576 6.21524V10.4741H19.0394V3.38705H21.5624V4.38998C21.9342 3.62707 22.5986 3.24441 23.5534 3.24441C24.0576 3.24441 24.4804 3.34428 24.8289 3.54153C25.1751 3.73878 25.4236 3.9931 25.5723 4.30679C25.721 4.62051 25.7954 5.16477 25.7954 5.93955V10.4741ZM17.6082 10.4741H14.8901V6.01319C14.8901 5.64485 14.8366 5.41194 14.7251 5.30975C14.6136 5.20754 14.4765 5.15527 14.3092 5.15527C13.8167 5.15527 13.5704 5.50939 13.5704 6.21524V10.4741H10.8522V3.38705H13.3753V4.38998C13.747 3.62707 14.4115 3.24441 15.3663 3.24441C15.8704 3.24441 16.2933 3.34428 16.6418 3.54153C16.988 3.73878 17.2365 3.9931 17.3852 4.30679C17.5339 4.62051 17.6082 5.16477 17.6082 5.93955V10.4741Z" fill="#2257A8"/>
<path fill-rule="evenodd" clip-rule="evenodd" d="M0.626984 20.5105C37.7725 -6.31362 75.0497 35.3698 100.627 20.0347C84.6673 42.7534 44.6101 1.58271 0.626984 20.5105Z" fill="#2257A8"/>
<path fill-rule="evenodd" clip-rule="evenodd" d="M2.83615 23.841C7.38436 18.0484 31.7065 18.7149 45.5106 20.5104C24.5432 22.6157 3.22552 27.9451 2.83615 23.841Z" fill="#2257A8"/>
</svg>
